<svg width="19" height="19" viewBox="0 0 19 19" fill="none" xmlns="http://www.w3.org/2000/svg">
<path d="M9.5 0C14.7385 0 19 4.26149 19 9.5C19 14.7385 14.7385 19 9.5 19C4.26149 19 0 14.7385 0 9.5C0 4.26149 4.26149 0 9.5 0ZM4.98193 14.4138C5.13631 14.5682 5.33897 14.6459 5.54162 14.6459C5.74427 14.6459 5.94707 14.5682 6.1013 14.4138L10.0597 10.4556C10.2086 10.3076 10.2916 10.1064 10.2916 9.89588V4.75C10.2916 4.31223 9.93705 3.95838 9.5 3.95838C9.06295 3.95838 8.70838 4.31223 8.70838 4.75V9.56813L4.98193 13.2944C4.67245 13.6041 4.67245 14.1043 4.98193 14.4138V14.4138Z" fill="white"/>
</svg>
