<svg width="16" height="21" viewBox="0 0 16 21" fill="none" xmlns="http://www.w3.org/2000/svg">
<path d="M7.7669 0.00431592C3.50223 -0.139406 0 3.27487 0 7.50708C0 12.3102 4.60931 15.7959 7.19283 20.8089C7.324 21.0634 7.6904 21.0637 7.82201 20.8092C10.1592 16.2986 14.1537 13.2739 14.894 8.92843C15.6605 4.43168 12.3258 0.158014 7.7669 0.00431592ZM7.50705 11.4393C5.33536 11.4393 3.5748 9.67873 3.5748 7.50708C3.5748 5.33543 5.33541 3.57483 7.50705 3.57483C9.67874 3.57483 11.4393 5.33543 11.4393 7.50708C11.4393 9.67873 9.67874 11.4393 7.50705 11.4393Z" fill="white"/>
</svg>
